<svg width="42" height="46" viewBox="0 0 42 46" fill="none" xmlns="http://www.w3.org/2000/svg">
<g filter="url(#filter0_d_10_77)">
<path d="M28.231 0.0700029L7.46157 0.237941C5.5577 0.253335 4.01243 1.8034 4.02763 3.68254L4.22101 27.5988L7.68257 27.5708L7.48919 3.65455L28.2586 3.48661L28.231 0.0700029ZM33.4786 6.86124L14.4399 7.01518C12.5361 7.03058 10.9908 8.58065 11.006 10.4598L11.1994 34.3761C11.2146 36.2552 12.7847 37.7801 14.6886 37.7647L33.7272 37.6107C35.6311 37.5953 37.1763 36.0453 37.1611 34.1661L36.9678 10.2499C36.9526 8.37072 35.3824 6.84584 33.4786 6.86124ZM33.6996 34.1941L14.661 34.3481L14.4676 10.4318L33.5062 10.2778L33.6996 34.1941Z" fill="#00095D"/>
</g>
<defs>
<filter id="filter0_d_10_77" x="0.0275269" y="0.0700073" width="41.1337" height="45.6948" filterUnits="userSpaceOnUse" color-interpolation-filters="sRGB">
<feFlood flood-opacity="0" result="BackgroundImageFix"/>
<feColorMatrix in="SourceAlpha" type="matrix" values="0 0 0 0 0 0 0 0 0 0 0 0 0 0 0 0 0 0 127 0" result="hardAlpha"/>
<feOffset dy="4"/>
<feGaussianBlur stdDeviation="2"/>
<feComposite in2="hardAlpha" operator="out"/>
<feColorMatrix type="matrix" values="0 0 0 0 0 0 0 0 0 0 0 0 0 0 0 0 0 0 0.25 0"/>
<feBlend mode="normal" in2="BackgroundImageFix" result="effect1_dropShadow_10_77"/>
<feBlend mode="normal" in="SourceGraphic" in2="effect1_dropShadow_10_77" result="shape"/>
</filter>
</defs>
</svg>
