<svg width="32" height="32" viewBox="0 0 32 32" fill="none" xmlns="http://www.w3.org/2000/svg">
<g filter="url(#filter0_d_9_75)">
<path d="M16 0C9.373 0 4 5.373 4 12C4 18.627 9.373 24 16 24C22.627 24 28 18.627 28 12C28 5.373 22.627 0 16 0ZM11.496 5.403C12.338 5.403 12.899 5.964 12.899 6.712C12.899 7.46 12.338 8.021 11.403 8.021C10.561 8.022 10 7.46 10 6.712C10 5.964 10.561 5.403 11.496 5.403ZM13 17H10V9H13V17ZM23 17H20.176V12.628C20.176 11.419 19.423 11.14 19.141 11.14C18.859 11.14 17.917 11.326 17.917 12.628C17.917 12.814 17.917 17 17.917 17H15V9H17.918V10.116C18.294 9.465 19.047 9 20.459 9C21.871 9 23 10.116 23 12.628V17Z" fill="white"/>
</g>
<defs>
<filter id="filter0_d_9_75" x="0" y="0" width="32" height="32" filterUnits="userSpaceOnUse" color-interpolation-filters="sRGB">
<feFlood flood-opacity="0" result="BackgroundImageFix"/>
<feColorMatrix in="SourceAlpha" type="matrix" values="0 0 0 0 0 0 0 0 0 0 0 0 0 0 0 0 0 0 127 0" result="hardAlpha"/>
<feOffset dy="4"/>
<feGaussianBlur stdDeviation="2"/>
<feComposite in2="hardAlpha" operator="out"/>
<feColorMatrix type="matrix" values="0 0 0 0 0 0 0 0 0 0 0 0 0 0 0 0 0 0 0.25 0"/>
<feBlend mode="normal" in2="BackgroundImageFix" result="effect1_dropShadow_9_75"/>
<feBlend mode="normal" in="SourceGraphic" in2="effect1_dropShadow_9_75" result="shape"/>
</filter>
</defs>
</svg>
