<svg width="41" height="41" viewBox="0 0 41 41" fill="none" xmlns="http://www.w3.org/2000/svg">
<g filter="url(#filter0_d_18_107)">
<path d="M32.1501 4.84687C29.1576 1.85625 25.0507 0 20.4897 0C11.3677 0 4 7.38375 4 16.5C4 25.6163 11.3677 33 20.4897 33C28.1876 33 34.606 27.7406 36.4428 20.625H32.1501C30.4578 25.4306 25.8762 28.875 20.4897 28.875C13.6585 28.875 8.10694 23.3269 8.10694 16.5C8.10694 9.67313 13.6585 4.125 20.4897 4.125C23.9156 4.125 26.97 5.54813 29.1989 7.79625L22.5535 14.4375H37V0L32.1501 4.84687Z" fill="#00095D"/>
</g>
<defs>
<filter id="filter0_d_18_107" x="0" y="0" width="41" height="41" filterUnits="userSpaceOnUse" color-interpolation-filters="sRGB">
<feFlood flood-opacity="0" result="BackgroundImageFix"/>
<feColorMatrix in="SourceAlpha" type="matrix" values="0 0 0 0 0 0 0 0 0 0 0 0 0 0 0 0 0 0 127 0" result="hardAlpha"/>
<feOffset dy="4"/>
<feGaussianBlur stdDeviation="2"/>
<feComposite in2="hardAlpha" operator="out"/>
<feColorMatrix type="matrix" values="0 0 0 0 0 0 0 0 0 0 0 0 0 0 0 0 0 0 0.25 0"/>
<feBlend mode="normal" in2="BackgroundImageFix" result="effect1_dropShadow_18_107"/>
<feBlend mode="normal" in="SourceGraphic" in2="effect1_dropShadow_18_107" result="shape"/>
</filter>
</defs>
</svg>
