<svg width="332" height="240" viewBox="0 0 332 240" fill="none" xmlns="http://www.w3.org/2000/svg">
<g filter="url(#filter0_d_8_86)">
<path d="M299.848 207.815C302.69 212.838 300.28 229.803 300.28 229.803C300.28 229.803 284.5 223.124 281.659 218.103C280.298 215.691 279.95 212.838 280.692 210.169C281.433 207.501 283.204 205.237 285.615 203.873C288.025 202.51 290.878 202.159 293.547 202.898C296.216 203.638 298.482 205.406 299.848 207.815V207.815Z" fill="#F1F1F1"/>
<path d="M300.509 229.781L300.173 229.852C296.945 214.512 285.67 204.11 285.556 204.007L285.787 203.754C285.901 203.858 297.257 214.33 300.509 229.781Z" fill="white"/>
<path d="M325.667 213.535C321.811 220.53 300.071 230.006 300.071 230.006C300.071 230.006 296.487 206.563 300.341 199.57C302.193 196.212 305.303 193.726 308.987 192.661C312.671 191.596 316.628 192.038 319.986 193.889C323.345 195.741 325.83 198.851 326.895 202.536C327.961 206.22 327.519 210.176 325.667 213.535Z" fill="#F1F1F1"/>
<path d="M300.263 230.259L299.937 229.916C315.668 214.976 319.741 194.138 319.78 193.93L320.246 194.017C320.206 194.227 316.109 215.211 300.263 230.259Z" fill="white"/>
<path d="M80.1748 160.569C77.6868 160.56 75.2097 160.24 72.8016 159.615L72.3269 159.483L71.8866 159.263C55.9682 151.282 42.5386 140.74 31.971 127.929C23.2232 117.263 16.403 105.152 11.8171 92.1423C6.33313 76.5659 3.69479 60.1304 4.02805 43.6202C4.03478 43.2736 4.04047 43.006 4.04047 42.8217C4.04047 34.7959 8.49536 27.754 15.3898 24.8812C20.6665 22.6826 68.576 3.00425 72.0376 1.58243C78.5567 -1.68406 85.5115 1.04234 86.6244 1.51912C89.1208 2.53978 133.41 20.6547 142.981 25.2121C152.845 29.9092 155.477 38.3472 155.477 42.5926C155.477 61.8125 152.148 79.7751 145.583 95.9813C140.281 109.099 132.767 121.209 123.367 131.785C105.232 152.193 87.0913 159.428 86.9163 159.492C84.7483 160.238 82.4673 160.602 80.1748 160.569ZM75.9088 150.001C77.4815 150.354 81.1024 150.883 83.4624 150.022C86.4605 148.929 101.644 141.055 115.832 125.089C135.435 103.028 145.382 75.2964 145.396 42.6635C145.361 42.0023 144.892 37.287 138.647 34.3136C129.262 29.8443 83.2268 11.0206 82.7629 10.8309L82.6357 10.7769C81.671 10.3727 78.6007 9.52113 76.4843 10.6302L76.0606 10.8277C75.5474 11.0385 24.6908 31.9264 19.267 34.1863C15.4728 35.7672 14.121 39.6836 14.121 42.8217C14.121 43.051 14.115 43.3846 14.1066 43.8157C13.6732 66.1444 18.8401 121.088 75.9088 150.001Z" fill="#3F3D56"/>
<path d="M74.1456 6.16534C74.1456 6.16534 22.8268 27.2427 17.3284 29.5337C11.8299 31.8247 9.08072 37.3232 9.08072 42.8216C9.08072 48.3201 4.95689 120.067 74.1456 154.757C74.1456 154.757 80.4252 156.495 85.1894 154.757C89.9537 153.02 150.437 123.695 150.437 42.5925C150.437 42.5925 150.437 34.3449 140.814 29.7628C131.192 25.1808 84.6699 6.16534 84.6699 6.16534C84.6699 6.16534 78.9568 3.64522 74.1456 6.16534Z" fill="#2E3EBF"/>
<path opacity="0.1" d="M79.6441 22.6607V135.101C79.6441 135.101 27.8671 110.178 28.3253 44.6545L79.6441 22.6607Z" fill="black"/>
<path d="M80.3193 103.473L63.8257 82.2659L73.4175 74.8058L81.2272 84.8469L107.61 56.9966L116.432 65.3553L80.3193 103.473Z" fill="white"/>
<path d="M327.604 231.012H176.893C176.788 231.012 176.688 230.97 176.613 230.896C176.539 230.822 176.497 230.721 176.497 230.616C176.497 230.511 176.539 230.411 176.613 230.336C176.688 230.262 176.788 230.221 176.893 230.221H327.604C327.709 230.221 327.81 230.262 327.884 230.336C327.958 230.411 328 230.511 328 230.616C328 230.721 327.958 230.822 327.884 230.896C327.81 230.97 327.709 231.012 327.604 231.012Z" fill="#CACACA"/>
<path d="M220.459 224.776L226.577 224.776L229.487 201.179L220.458 201.18L220.459 224.776Z" fill="#FFB8B8"/>
<path d="M218.898 222.779L230.946 222.778H230.947C232.983 222.779 234.936 223.587 236.376 225.027C237.816 226.467 238.625 228.42 238.625 230.456V230.706L218.899 230.707L218.898 222.779Z" fill="#2F2E41"/>
<path d="M241.029 224.776L247.146 224.776L250.057 201.179L241.027 201.18L241.029 224.776Z" fill="#FFB8B8"/>
<path d="M239.468 222.779L251.516 222.778H251.516C253.553 222.779 255.506 223.587 256.945 225.027C258.385 226.467 259.194 228.42 259.194 230.456V230.706L239.468 230.707L239.468 222.779Z" fill="#2F2E41"/>
<path d="M230.075 141.91L231.542 216.771L219.671 216.035L211.435 168.353L208.834 135.841L230.075 141.91Z" fill="#2F2E41"/>
<path d="M250.448 129.339L252.112 217.958L238.267 217.562L235.276 164.885L230.075 145.811L208.834 135.841L212.302 112L243.512 111.567L250.448 129.339Z" fill="#2F2E41"/>
<path d="M226.578 50.0125C232.442 50.0125 237.195 45.2594 237.195 39.3961C237.195 33.5329 232.442 28.7798 226.578 28.7798C220.715 28.7798 215.962 33.5329 215.962 39.3961C215.962 45.2594 220.715 50.0125 226.578 50.0125Z" fill="#FFB8B8"/>
<path d="M235.384 54.4847L237.01 56.9483L241.345 69.0855L237.877 116.335L217.503 116.768L214.903 62.5832L220.351 55.7731L235.384 54.4847Z" fill="#CCCCCC"/>
<path d="M206.667 63.8839L203.199 63.4504C203.199 63.4504 202.332 63.8839 201.898 66.9182C201.465 69.9526 196.263 96.8283 196.263 96.8283L203.199 129.773L211.001 119.369L206.233 101.163L211.001 82.957L206.667 63.8839Z" fill="#2F2E41"/>
<path d="M250.881 63.4507H253.482L259.985 98.5621L253.916 125.871L247.847 115.901L249.581 105.064L248.714 95.5281L245.68 89.8924L250.881 63.4507Z" fill="#2F2E41"/>
<path d="M232.852 39.3961L230.922 38.9136C230.922 38.9136 229.474 30.71 226.096 31.6751C222.718 32.6403 214.032 33.6054 214.032 29.7449C214.032 25.8844 222.235 22.5065 227.061 22.989C231.887 23.4716 238.05 25.0725 239.608 32.1577C242.105 43.5156 234.455 46.3845 234.455 46.3845L234.582 45.9709C234.936 44.8227 234.961 43.5985 234.655 42.4366C234.349 41.2748 233.725 40.2216 232.852 39.3961Z" fill="#2F2E41"/>
<path d="M203.632 63.4504L217.504 57.8151L220.755 55.431L230.508 98.5622L235.06 54.1306L253.049 63.4504L246.98 92.9269L246.113 104.197L248.714 113.3C248.714 113.3 257.817 119.803 254.783 126.738C251.748 133.674 248.281 134.107 248.281 134.107C248.281 134.107 233.542 120.236 232.675 116.768C231.808 113.3 230.508 107.232 230.508 107.232C230.508 107.232 223.139 134.974 214.469 134.541C205.8 134.107 205.8 125.004 205.8 125.004L207.967 115.468L211.435 105.498L209.701 89.0256L203.632 63.4504Z" fill="#2F2E41"/>
</g>
<defs>
<filter id="filter0_d_8_86" x="0" y="0" width="332" height="239.012" filterUnits="userSpaceOnUse" color-interpolation-filters="sRGB">
<feFlood flood-opacity="0" result="BackgroundImageFix"/>
<feColorMatrix in="SourceAlpha" type="matrix" values="0 0 0 0 0 0 0 0 0 0 0 0 0 0 0 0 0 0 127 0" result="hardAlpha"/>
<feOffset dy="4"/>
<feGaussianBlur stdDeviation="2"/>
<feComposite in2="hardAlpha" operator="out"/>
<feColorMatrix type="matrix" values="0 0 0 0 0 0 0 0 0 0 0 0 0 0 0 0 0 0 0.25 0"/>
<feBlend mode="normal" in2="BackgroundImageFix" result="effect1_dropShadow_8_86"/>
<feBlend mode="normal" in="SourceGraphic" in2="effect1_dropShadow_8_86" result="shape"/>
</filter>
</defs>
</svg>
